<svg width="21" height="21" viewBox="0 0 21 21" fill="none" xmlns="http://www.w3.org/2000/svg">
<g clip-path="url(#clip0_1_9733)">
<path d="M2.40625 0C1.07712 0 0 1.07712 0 2.40625V10.0625H10.0625V0H2.40625ZM6.34375 5.90625H5.46875V6.78125C5.46875 7.1435 5.17475 7.4375 4.8125 7.4375C4.45025 7.4375 4.15625 7.1435 4.15625 6.78125V5.90625H3.28125C2.919 5.90625 2.625 5.61225 2.625 5.25C2.625 4.88775 2.919 4.59375 3.28125 4.59375H4.15625V3.71875C4.15625 3.3565 4.45025 3.0625 4.8125 3.0625C5.17475 3.0625 5.46875 3.3565 5.46875 3.71875V4.59375H6.34375C6.706 4.59375 7 4.88775 7 5.25C7 5.61225 6.706 5.90625 6.34375 5.90625Z" fill="white"/>
<path d="M0 10.9375V18.5938C0 19.9229 1.07712 21 2.40625 21H10.0625V10.9375H0ZM6.58875 16.5987C6.84513 16.8551 6.84513 17.2708 6.58875 17.5271C6.461 17.6549 6.293 17.7188 6.125 17.7188C5.957 17.7188 5.789 17.6549 5.66125 17.5263L5.03125 16.8962L4.40125 17.5263C4.2735 17.654 4.1055 17.7188 3.9375 17.7188C3.7695 17.7188 3.6015 17.6549 3.47375 17.5263C3.21738 17.2699 3.21738 16.8543 3.47375 16.5979L4.10375 15.9679L3.47375 15.3379C3.21738 15.0815 3.21738 14.6659 3.47375 14.4095C3.73012 14.1531 4.14575 14.1531 4.40213 14.4095L5.03212 15.0395L5.66213 14.4095C5.9185 14.1531 6.33413 14.1531 6.5905 14.4095C6.84688 14.6659 6.84688 15.0815 6.5905 15.3379L5.9605 15.9679L6.58875 16.5987Z" fill="white"/>
<path d="M18.5938 0H10.9375V10.0625H21V2.40625C21 1.07712 19.9229 0 18.5938 0ZM18.1563 5.6875H14.2188C13.8565 5.6875 13.5625 5.3935 13.5625 5.03125C13.5625 4.669 13.8565 4.375 14.2188 4.375H18.1563C18.5185 4.375 18.8125 4.669 18.8125 5.03125C18.8125 5.3935 18.5185 5.6875 18.1563 5.6875Z" fill="white"/>
<path d="M10.9375 10.9375V21H18.5938C19.9229 21 21 19.9229 21 18.5938V10.9375H10.9375ZM17.9375 17.9375H14C13.6378 17.9375 13.3438 17.6435 13.3438 17.2813C13.3438 16.919 13.6378 16.625 14 16.625H17.9375C18.2998 16.625 18.5938 16.919 18.5938 17.2813C18.5938 17.6435 18.2998 17.9375 17.9375 17.9375ZM17.9375 15.3125H14C13.6378 15.3125 13.3438 15.0185 13.3438 14.6563C13.3438 14.294 13.6378 14 14 14H17.9375C18.2998 14 18.5938 14.294 18.5938 14.6563C18.5938 15.0185 18.2998 15.3125 17.9375 15.3125Z" fill="white"/>
</g>
<defs>
<clipPath id="clip0_1_9733">
<rect width="21" height="21" fill="white"/>
</clipPath>
</defs>
</svg>
