<svg width="23" height="24" viewBox="0 0 23 24" fill="none" xmlns="http://www.w3.org/2000/svg">
<path d="M19.4111 1.77588C19.9254 1.37104 20.6732 1.41408 21.1377 1.89502L21.2246 1.99463C21.6274 2.50662 21.5861 3.24855 21.1113 3.71338L21.1123 3.71436L13.3213 11.5054L21.1182 19.3022L21.2031 19.3999C21.573 19.8677 21.573 20.5317 21.2031 20.9995L21.1182 21.0962C20.6227 21.6092 19.805 21.6238 19.292 21.1284L11.4951 13.3315L3.7041 21.1226C3.23152 21.595 2.48365 21.6246 1.97656 21.2114L1.87793 21.1226C1.37381 20.6184 1.37385 19.8006 1.87793 19.2964L9.66895 11.5054L1.87207 3.7085C1.38882 3.20815 1.38895 2.41497 1.87207 1.91455L1.96875 1.82373C2.43539 1.42954 3.11867 1.41751 3.59863 1.79541L3.69824 1.88232L11.4951 9.6792L19.2861 1.88818V1.88916C19.2947 1.88042 19.3028 1.87125 19.3115 1.86279L19.4111 1.77588Z" fill="#FF540E" stroke="#FF540E"/>
</svg>
