<svg width="14" height="14" viewBox="0 0 14 14" fill="none" xmlns="http://www.w3.org/2000/svg">
<g clip-path="url(#clip0_1_9797)">
<path d="M9.28027 7.07166L14 10.0554V3.96191L9.28027 7.07166Z" fill="#FF540E"/>
<path d="M0 3.96191V10.0554L4.71975 7.07166L0 3.96191Z" fill="#FF540E"/>
<path d="M13.1251 2.1875H0.875118C0.438493 2.1875 0.0919922 2.513 0.0263672 2.93213L7.00012 7.52675L13.9739 2.93213C13.9083 2.513 13.5618 2.1875 13.1251 2.1875Z" fill="#FF540E"/>
<path d="M8.47908 7.60024L7.24096 8.41574C7.16746 8.46386 7.08433 8.48749 7.00033 8.48749C6.91633 8.48749 6.83321 8.46386 6.75971 8.41574L5.52158 7.59937L0.0283203 11.074C0.0956954 11.4896 0.440446 11.8125 0.875322 11.8125H13.1253C13.5602 11.8125 13.905 11.4896 13.9723 11.074L8.47908 7.60024Z" fill="#FF540E"/>
</g>
<defs>
<clipPath id="clip0_1_9797">
<rect width="14" height="14" fill="white"/>
</clipPath>
</defs>
</svg>
