<svg width="31" height="26" viewBox="0 0 31 26" fill="none" xmlns="http://www.w3.org/2000/svg">
<path d="M28.5986 11.7344C29.3097 11.7344 29.9014 12.2926 29.9014 13C29.9014 13.7074 29.3097 14.2656 28.5986 14.2656H3.74805C3.03711 14.2655 2.44531 13.7074 2.44531 13C2.44531 12.2926 3.03711 11.7345 3.74805 11.7344H28.5986Z" fill="#FF540E" stroke="#FF540E" stroke-width="0.5"/>
<path d="M20.8281 3.60938C21.1314 3.6095 21.3844 3.77919 21.5518 4.00977C21.7193 4.24069 21.8145 4.54758 21.8145 4.875C21.8145 5.20242 21.7193 5.50931 21.5518 5.74023C21.3844 5.97081 21.1314 6.1405 20.8281 6.14062H3.43262C3.12924 6.14062 2.87639 5.97079 2.70898 5.74023C2.54139 5.50931 2.44531 5.20244 2.44531 4.875C2.44531 4.54756 2.54139 4.24069 2.70898 4.00977C2.87639 3.77921 3.12924 3.60938 3.43262 3.60938H20.8281Z" fill="black" stroke="black" stroke-width="0.5"/>
<path d="M11.7617 19.8594C11.913 19.8594 12.0246 19.9447 12.0947 20.0264C12.1655 20.1088 12.2177 20.2136 12.2568 20.3213C12.3358 20.5389 12.3799 20.8233 12.3799 21.125C12.3799 21.4267 12.3358 21.7111 12.2568 21.9287C12.2177 22.0364 12.1655 22.1412 12.0947 22.2236C12.0246 22.3053 11.913 22.3906 11.7617 22.3906H3.06348C2.9123 22.3905 2.80052 22.3053 2.73047 22.2236C2.65973 22.1412 2.60745 22.0364 2.56836 21.9287C2.48939 21.7111 2.44531 21.4267 2.44531 21.125C2.44531 20.8233 2.48939 20.5389 2.56836 20.3213C2.60745 20.2136 2.65973 20.1088 2.73047 20.0264C2.80052 19.9447 2.9123 19.8595 3.06348 19.8594H11.7617Z" fill="#E68300" stroke="#E68300" stroke-width="0.5"/>
</svg>
