<svg width="29" height="29" viewBox="0 0 29 29" fill="none" xmlns="http://www.w3.org/2000/svg">
<g clip-path="url(#clip0_1_9826)">
<path d="M27.9787 16.7872C28.8439 9.5046 27.563 4.90689 25.2527 2.82735L25.2539 2.82614C21.525 -0.725153 8.93173 -1.25078 4.47056 2.98564C2.46715 5.05793 1.76148 8.09931 1.68415 11.8645C1.60681 15.6308 1.51498 22.6863 8.08952 24.6003H8.09556L8.08952 27.5233C8.08952 27.5233 8.04481 28.7074 8.80123 28.9455C9.6664 29.2258 10.0579 28.676 12.7489 25.4618C17.2487 25.8521 20.7045 24.958 21.0972 24.8275C22.0059 24.523 27.1474 23.8427 27.9787 16.7872ZM13.1923 23.4053C13.1923 23.4053 10.3443 26.9566 9.45856 27.8785C9.16856 28.1782 8.85077 28.1504 8.85561 27.5559C8.85561 27.1656 8.87736 22.7032 8.87736 22.7032C3.30331 21.1058 3.63198 15.098 3.6924 11.9551C3.75281 8.81101 4.32798 6.23605 6.02448 4.5021C9.93827 0.832388 20.9788 1.65285 23.7918 4.29668C27.2307 7.3453 26.0067 15.9583 26.0139 16.2519C25.3071 22.1413 21.1407 22.5147 20.3746 22.7697C20.0472 22.8784 17.0082 23.6602 13.1923 23.4053Z" fill="#8E24AA"/>
<path d="M14.7679 5.19214C14.3026 5.19214 14.3026 5.91714 14.7679 5.92318C18.3771 5.95097 21.3496 8.46672 21.3823 13.0813C21.3823 13.5683 22.0952 13.5623 22.0891 13.0753H22.0879C22.0493 8.10301 18.8037 5.21993 14.7679 5.19214Z" fill="#8E24AA"/>
<path d="M19.5153 12.3163C19.5044 12.7973 20.2162 12.8202 20.2222 12.3333C20.2814 9.59155 18.5909 7.33317 15.4142 7.09513C14.949 7.0613 14.9007 7.79234 15.3647 7.82617C18.1197 8.03522 19.5709 9.91538 19.5153 12.3163Z" fill="#8E24AA"/>
<path d="M18.7548 15.4351C18.1579 15.0895 17.5501 15.3046 17.2988 15.6441L16.7732 16.3244C16.5061 16.67 16.0071 16.6241 16.0071 16.6241C12.3652 15.661 11.3913 11.8499 11.3913 11.8499C11.3913 11.8499 11.3465 11.334 11.68 11.0573L12.3374 10.5135C12.666 10.2525 12.8739 9.62417 12.5392 9.00672C11.645 7.39117 11.0445 6.83413 10.7388 6.40638C10.4173 6.00401 9.934 5.91338 9.43134 6.18526H9.42046C8.37526 6.79667 7.23097 7.94097 7.59709 9.11909C8.2218 10.3613 9.36971 14.321 13.0285 17.3128C14.748 18.7278 17.4692 20.1778 18.6243 20.5125L18.6352 20.5294C19.7735 20.9088 20.8803 19.7198 21.4712 18.6432V18.6347C21.7334 18.1139 21.6464 17.6209 21.2633 17.2983C20.5842 16.6361 19.5596 15.9051 18.7548 15.4351Z" fill="#8E24AA"/>
<path d="M15.9121 9.79212C17.0734 9.85979 17.6364 10.4664 17.6969 11.7122C17.7186 12.1991 18.4255 12.1653 18.4037 11.6783C18.3264 10.0519 17.4781 9.14566 15.9508 9.06108C15.4856 9.03328 15.4421 9.76433 15.9121 9.79212Z" fill="#8E24AA"/>
</g>
<defs>
<clipPath id="clip0_1_9826">
<rect width="29" height="29" fill="white"/>
</clipPath>
</defs>
</svg>
