<!-- Generated by IcoMoon.io -->
<svg version="1.1" xmlns="http://www.w3.org/2000/svg" width="32" height="32" viewBox="0 0 32 32">
<path fill="#fff" d="M3.667 0c-2.025 0-3.667 1.641-3.667 3.667v11.667h15.333v-15.333h-11.667zM9.667 9h-1.333v1.333c0 0.552-0.448 1-1 1s-1-0.448-1-1v-1.333h-1.333c-0.552 0-1-0.448-1-1s0.448-1 1-1h1.333v-1.333c0-0.552 0.448-1 1-1s1 0.448 1 1v1.333h1.333c0.552 0 1 0.448 1 1s-0.448 1-1 1z"></path>
<path fill="#fff" d="M0 16.667v11.667c0 2.025 1.641 3.667 3.667 3.667h11.667v-15.333h-15.333zM10.040 25.293c0.391 0.391 0.391 1.024 0 1.415-0.195 0.195-0.451 0.292-0.707 0.292s-0.512-0.097-0.707-0.293l-0.96-0.96-0.96 0.96c-0.195 0.195-0.451 0.293-0.707 0.293s-0.512-0.097-0.707-0.293c-0.391-0.391-0.391-1.024 0-1.415l0.96-0.96-0.96-0.96c-0.391-0.391-0.391-1.024 0-1.415s1.024-0.391 1.415 0l0.96 0.96 0.96-0.96c0.391-0.391 1.024-0.391 1.415 0s0.391 1.024 0 1.415l-0.96 0.96 0.957 0.961z"></path>
<path fill="#fff" d="M28.333 0h-11.667v15.333h15.333v-11.667c0-2.025-1.641-3.667-3.667-3.667zM27.667 8.667h-6c-0.552 0-1-0.448-1-1s0.448-1 1-1h6c0.552 0 1 0.448 1 1s-0.448 1-1 1z"></path>
<path fill="#fff" d="M16.667 16.667v15.333h11.667c2.025 0 3.667-1.641 3.667-3.667v-11.667h-15.333zM27.333 27.333h-6c-0.552 0-1-0.448-1-1s0.448-1 1-1h6c0.552 0 1 0.448 1 1s-0.448 1-1 1zM27.333 23.333h-6c-0.552 0-1-0.448-1-1s0.448-1 1-1h6c0.552 0 1 0.448 1 1s-0.448 1-1 1z"></path>
</svg>
