<!-- Generated by IcoMoon.io -->
<svg version="1.1" xmlns="http://www.w3.org/2000/svg" width="31" height="32" viewBox="0 0 31 32">
<path fill="#ff540e" stroke="#ff540e" stroke-linejoin="miter" stroke-linecap="butt" stroke-miterlimit="4" stroke-width="1.3333" d="M25.881 2.368c0.686-0.54 1.683-0.482 2.302 0.159l0.116 0.133c0.537 0.683 0.482 1.672-0.151 2.292l0.001 0.001-10.388 10.388 10.396 10.396 0.113 0.13c0.493 0.624 0.493 1.509 0 2.133l-0.113 0.129c-0.661 0.684-1.751 0.703-2.435 0.043l-10.396-10.396-10.388 10.388c-0.63 0.63-1.627 0.669-2.303 0.118l-0.131-0.118c-0.672-0.672-0.672-1.763 0-2.435l10.388-10.388-10.396-10.396c-0.644-0.667-0.644-1.725 0-2.392l0.129-0.121c0.622-0.526 1.533-0.542 2.173-0.038l0.133 0.116 10.396 10.396 10.388-10.387c0.011-0.012 0.022-0.024 0.034-0.035l0.133-0.116z"></path>
</svg>
