<!-- Generated by IcoMoon.io -->
<svg version="1.1" xmlns="http://www.w3.org/2000/svg" width="38" height="32" viewBox="0 0 38 32">
<path fill="#ff540e" stroke="#ff540e" stroke-linejoin="miter" stroke-linecap="butt" stroke-miterlimit="4" stroke-width="0.6154" d="M35.198 14.442c0.875 0 1.603 0.687 1.603 1.558s-0.728 1.558-1.603 1.558h-30.585c-0.875-0-1.603-0.687-1.603-1.558s0.728-1.558 1.603-1.558h30.585z"></path>
<path fill="#000" stroke="#000" stroke-linejoin="miter" stroke-linecap="butt" stroke-miterlimit="4" stroke-width="0.6154" d="M25.635 4.442c0.373 0 0.685 0.209 0.891 0.493s0.323 0.662 0.323 1.065-0.117 0.781-0.323 1.065c-0.206 0.284-0.517 0.493-0.891 0.493h-21.41c-0.373 0-0.685-0.209-0.891-0.493s-0.325-0.662-0.325-1.065 0.118-0.781 0.325-1.065c0.206-0.284 0.517-0.493 0.891-0.493h21.41z"></path>
<path fill="#e68300" stroke="#e68300" stroke-linejoin="miter" stroke-linecap="butt" stroke-miterlimit="4" stroke-width="0.6154" d="M14.476 24.442c0.186 0 0.324 0.105 0.41 0.206s0.151 0.23 0.2 0.363c0.097 0.268 0.152 0.618 0.152 0.989s-0.054 0.721-0.152 0.989c-0.048 0.133-0.112 0.262-0.2 0.363s-0.224 0.206-0.41 0.206h-10.706c-0.186-0-0.324-0.105-0.41-0.206s-0.151-0.23-0.2-0.363c-0.097-0.268-0.151-0.618-0.151-0.989s0.054-0.721 0.151-0.989c0.048-0.133 0.112-0.262 0.2-0.363s0.224-0.205 0.41-0.206h10.706z"></path>
</svg>
