<svg aria-hidden="true" style="position: absolute; width: 0; height: 0; overflow: hidden;" version="1.1" xmlns="http://www.w3.org/2000/svg" xmlns:xlink="http://www.w3.org/1999/xlink">
<defs>
<symbol id="icon-phone" viewBox="0 0 32 32">
<path fill="#ff540e" style="fill: var(--color1, #ff540e)" d="M31.129 23.485l-4.466-4.466c-1.595-1.595-4.306-0.957-4.944 1.116-0.478 1.435-2.073 2.233-3.509 1.914-3.19-0.797-7.496-4.944-8.293-8.293-0.478-1.435 0.478-3.030 1.914-3.509 2.073-0.638 2.711-3.349 1.116-4.944l-4.466-4.466c-1.276-1.116-3.19-1.116-4.306 0l-3.030 3.030c-3.030 3.19 0.319 11.643 7.815 19.139s15.949 11.005 19.139 7.815l3.030-3.030c1.117-1.276 1.117-3.19 0-4.306z"></path>
</symbol>
<symbol id="icon-Vector" viewBox="0 0 32 32">
<path fill="#2196f3" style="fill: var(--color2, #2196f3)" d="M0 14.815c0 4.661 2.325 8.82 5.962 11.536v5.649l5.448-2.989c1.453 0.401 2.993 0.62 4.589 0.62 8.836 0 16.001-6.632 16.001-14.815 0.001-8.183-7.163-14.816-15.999-14.816s-16.001 6.632-16.001 14.815v0zM14.313 10.665l4.173 4.345 7.85-4.345-8.747 9.283-4.073-4.344-7.951 4.345 8.748-9.284z"></path>
</symbol>
<symbol id="icon-viber" viewBox="0 0 32 32">
<path fill="#8e24aa" style="fill: var(--color3, #8e24aa)" d="M30.873 18.524c0.955-8.036-0.459-13.109-3.008-15.404l0.001-0.001c-4.115-3.919-18.011-4.499-22.933 0.176-2.211 2.287-2.989 5.643-3.075 9.797-0.085 4.156-0.187 11.941 7.068 14.053h0.007l-0.007 3.225c0 0-0.049 1.307 0.785 1.569 0.955 0.309 1.387-0.297 4.356-3.844 4.965 0.431 8.779-0.556 9.212-0.7 1.003-0.336 6.676-1.087 7.593-8.872zM14.557 25.827c0 0-3.143 3.919-4.12 4.936-0.32 0.331-0.671 0.3-0.665-0.356 0-0.431 0.024-5.355 0.024-5.355-6.151-1.763-5.788-8.392-5.721-11.86 0.067-3.469 0.701-6.311 2.573-8.224 4.319-4.049 16.501-3.144 19.605-0.227 3.795 3.364 2.444 12.868 2.452 13.192-0.78 6.499-5.377 6.911-6.223 7.192-0.361 0.12-3.715 0.983-7.925 0.701z"></path>
<path fill="#8e24aa" style="fill: var(--color3, #8e24aa)" d="M16.296 5.729c-0.513 0-0.513 0.8 0 0.807 3.983 0.031 7.263 2.807 7.299 7.899 0 0.537 0.787 0.531 0.78-0.007h-0.001c-0.043-5.487-3.624-8.668-8.077-8.699z"></path>
<path fill="#8e24aa" style="fill: var(--color3, #8e24aa)" d="M21.534 13.59c-0.012 0.531 0.773 0.556 0.78 0.019 0.065-3.025-1.8-5.517-5.305-5.78-0.513-0.037-0.567 0.769-0.055 0.807 3.040 0.231 4.641 2.305 4.58 4.955z"></path>
<path fill="#8e24aa" style="fill: var(--color3, #8e24aa)" d="M20.695 17.032c-0.659-0.381-1.329-0.144-1.607 0.231l-0.58 0.751c-0.295 0.381-0.845 0.331-0.845 0.331-4.019-1.063-5.093-5.268-5.093-5.268s-0.049-0.569 0.319-0.875l0.725-0.6c0.363-0.288 0.592-0.981 0.223-1.663-0.987-1.783-1.649-2.397-1.987-2.869-0.355-0.444-0.888-0.544-1.443-0.244h-0.012c-1.153 0.675-2.416 1.937-2.012 3.237 0.689 1.371 1.956 5.74 5.993 9.041 1.897 1.561 4.9 3.161 6.175 3.531l0.012 0.019c1.256 0.419 2.477-0.893 3.129-2.081v-0.009c0.289-0.575 0.193-1.119-0.229-1.475-0.749-0.731-1.88-1.537-2.768-2.056z"></path>
<path fill="#8e24aa" style="fill: var(--color3, #8e24aa)" d="M17.558 10.805c1.281 0.075 1.903 0.744 1.969 2.119 0.024 0.537 0.804 0.5 0.78-0.037-0.085-1.795-1.021-2.795-2.707-2.888-0.513-0.031-0.561 0.776-0.043 0.807z"></path>
</symbol>
<symbol id="icon-email" viewBox="0 0 32 32">
<path fill="#ff540e" style="fill: var(--color1, #ff540e)" d="M21.212 16.164l10.788 6.82v-13.928l-10.788 7.108z"></path>
<path fill="#ff540e" style="fill: var(--color1, #ff540e)" d="M0 9.056v13.928l10.788-6.82-10.788-7.108z"></path>
<path fill="#ff540e" style="fill: var(--color1, #ff540e)" d="M30 5h-28c-0.998 0-1.79 0.744-1.94 1.702l15.94 10.502 15.94-10.502c-0.15-0.958-0.942-1.702-1.94-1.702z"></path>
<path fill="#ff540e" style="fill: var(--color1, #ff540e)" d="M19.381 17.372l-2.83 1.864c-0.168 0.11-0.358 0.164-0.55 0.164s-0.382-0.054-0.55-0.164l-2.83-1.866-12.556 7.942c0.154 0.95 0.942 1.688 1.936 1.688h28c0.994 0 1.782-0.738 1.936-1.688l-12.556-7.94z"></path>
</symbol>
<symbol id="icon-menu" viewBox="0 0 38 32">
<path fill="#ff540e" style="fill: var(--color1, #ff540e); stroke: var(--color1, #ff540e)" stroke="#ff540e" stroke-linejoin="miter" stroke-linecap="butt" stroke-miterlimit="4" stroke-width="0.6154" d="M35.198 14.442c0.875 0 1.603 0.687 1.603 1.558s-0.728 1.558-1.603 1.558h-30.585c-0.875-0-1.603-0.687-1.603-1.558s0.728-1.558 1.603-1.558h30.585z"></path>
<path fill="#000" style="fill: var(--color4, #000); stroke: var(--color4, #000)" stroke="#000" stroke-linejoin="miter" stroke-linecap="butt" stroke-miterlimit="4" stroke-width="0.6154" d="M25.635 4.442c0.373 0 0.685 0.209 0.891 0.493s0.323 0.662 0.323 1.065-0.117 0.781-0.323 1.065c-0.206 0.284-0.517 0.493-0.891 0.493h-21.41c-0.373 0-0.685-0.209-0.891-0.493s-0.325-0.662-0.325-1.065 0.118-0.781 0.325-1.065c0.206-0.284 0.517-0.493 0.891-0.493h21.41z"></path>
<path fill="#e68300" style="fill: var(--color5, #e68300); stroke: var(--color5, #e68300)" stroke="#e68300" stroke-linejoin="miter" stroke-linecap="butt" stroke-miterlimit="4" stroke-width="0.6154" d="M14.476 24.442c0.186 0 0.324 0.105 0.41 0.206s0.151 0.23 0.2 0.363c0.097 0.268 0.152 0.618 0.152 0.989s-0.054 0.721-0.152 0.989c-0.048 0.133-0.112 0.262-0.2 0.363s-0.224 0.206-0.41 0.206h-10.706c-0.186-0-0.324-0.105-0.41-0.206s-0.151-0.23-0.2-0.363c-0.097-0.268-0.151-0.618-0.151-0.989s0.054-0.721 0.151-0.989c0.048-0.133 0.112-0.262 0.2-0.363s0.224-0.205 0.41-0.206h10.706z"></path>
</symbol>
</defs>
</svg>
